<mxfile host="app.diagrams.net" agent="Mozilla/5.0 (X11; Linux x86_64) AppleWebKit/537.36 (KHTML, like Gecko) Chrome/121.0.0.0 Safari/537.36" version="24.7.4">
  <diagram name="PÃ¡gina-1" id="Wn8zAbO-QYpouLNqE-SX">
    <mxGraphModel dx="317" dy="184" grid="1" gridSize="10" guides="1" tooltips="1" connect="1" arrows="1" fold="1" page="1" pageScale="1" pageWidth="827" pageHeight="1169" math="0" shadow="0">
      <root>
        <mxCell id="0" />
        <mxCell id="1" parent="0" />
        <mxCell id="9z8tWcFH6EBTSIyHQbGG-1" value="" style="ellipse;whiteSpace=wrap;html=1;" parent="1" vertex="1">
          <mxGeometry x="289" y="308" width="170" height="110" as="geometry" />
        </mxCell>
        <mxCell id="EWRXOEAjs6uAZaaVGEfP-3" value="" style="ellipse;whiteSpace=wrap;html=1;" vertex="1" parent="1">
          <mxGeometry x="520" y="353.75" width="50" height="33.75" as="geometry" />
        </mxCell>
        <mxCell id="EWRXOEAjs6uAZaaVGEfP-5" value="Ultra lims" style="text;strokeColor=none;fillColor=none;html=1;fontSize=24;fontStyle=1;verticalAlign=middle;align=center;" vertex="1" parent="1">
          <mxGeometry x="324" y="343" width="100" height="40" as="geometry" />
        </mxCell>
        <mxCell id="EWRXOEAjs6uAZaaVGEfP-6" value="" style="ellipse;whiteSpace=wrap;html=1;" vertex="1" parent="1">
          <mxGeometry x="510" y="392.5" width="50" height="33.75" as="geometry" />
        </mxCell>
        <mxCell id="EWRXOEAjs6uAZaaVGEfP-10" value="" style="ellipse;whiteSpace=wrap;html=1;" vertex="1" parent="1">
          <mxGeometry x="520" y="314.25" width="50" height="33.75" as="geometry" />
        </mxCell>
        <mxCell id="EWRXOEAjs6uAZaaVGEfP-12" value="" style="ellipse;whiteSpace=wrap;html=1;" vertex="1" parent="1">
          <mxGeometry x="510" y="274.25" width="50" height="33.75" as="geometry" />
        </mxCell>
        <mxCell id="EWRXOEAjs6uAZaaVGEfP-13" value="" style="ellipse;whiteSpace=wrap;html=1;" vertex="1" parent="1">
          <mxGeometry x="476" y="244.5" width="50" height="33.75" as="geometry" />
        </mxCell>
        <mxCell id="EWRXOEAjs6uAZaaVGEfP-14" value="" style="ellipse;whiteSpace=wrap;html=1;" vertex="1" parent="1">
          <mxGeometry x="480" y="426.25" width="50" height="33.75" as="geometry" />
        </mxCell>
        <mxCell id="EWRXOEAjs6uAZaaVGEfP-15" value="" style="ellipse;whiteSpace=wrap;html=1;" vertex="1" parent="1">
          <mxGeometry x="440" y="460" width="50" height="33.75" as="geometry" />
        </mxCell>
        <mxCell id="EWRXOEAjs6uAZaaVGEfP-16" value="" style="ellipse;whiteSpace=wrap;html=1;" vertex="1" parent="1">
          <mxGeometry x="387" y="470" width="50" height="33.75" as="geometry" />
        </mxCell>
        <mxCell id="EWRXOEAjs6uAZaaVGEfP-17" value="" style="ellipse;whiteSpace=wrap;html=1;" vertex="1" parent="1">
          <mxGeometry x="330" y="470" width="50" height="33.75" as="geometry" />
        </mxCell>
        <mxCell id="EWRXOEAjs6uAZaaVGEfP-18" value="" style="ellipse;whiteSpace=wrap;html=1;" vertex="1" parent="1">
          <mxGeometry x="274" y="460" width="50" height="33.75" as="geometry" />
        </mxCell>
        <mxCell id="EWRXOEAjs6uAZaaVGEfP-19" value="" style="ellipse;whiteSpace=wrap;html=1;" vertex="1" parent="1">
          <mxGeometry x="224" y="437.5" width="50" height="33.75" as="geometry" />
        </mxCell>
        <mxCell id="EWRXOEAjs6uAZaaVGEfP-20" value="" style="ellipse;whiteSpace=wrap;html=1;" vertex="1" parent="1">
          <mxGeometry x="200" y="403.75" width="50" height="33.75" as="geometry" />
        </mxCell>
        <mxCell id="EWRXOEAjs6uAZaaVGEfP-21" value="" style="ellipse;whiteSpace=wrap;html=1;" vertex="1" parent="1">
          <mxGeometry x="182" y="369" width="50" height="33.75" as="geometry" />
        </mxCell>
        <mxCell id="EWRXOEAjs6uAZaaVGEfP-22" value="" style="ellipse;whiteSpace=wrap;html=1;" vertex="1" parent="1">
          <mxGeometry x="176" y="330" width="50" height="33.75" as="geometry" />
        </mxCell>
        <mxCell id="EWRXOEAjs6uAZaaVGEfP-23" value="" style="ellipse;whiteSpace=wrap;html=1;" vertex="1" parent="1">
          <mxGeometry x="183" y="292" width="50" height="33.75" as="geometry" />
        </mxCell>
        <mxCell id="EWRXOEAjs6uAZaaVGEfP-24" value="" style="ellipse;whiteSpace=wrap;html=1;" vertex="1" parent="1">
          <mxGeometry x="210" y="260" width="50" height="33.75" as="geometry" />
        </mxCell>
        <mxCell id="EWRXOEAjs6uAZaaVGEfP-25" value="" style="ellipse;whiteSpace=wrap;html=1;" vertex="1" parent="1">
          <mxGeometry x="260" y="240.5" width="50" height="33.75" as="geometry" />
        </mxCell>
        <mxCell id="EWRXOEAjs6uAZaaVGEfP-26" value="" style="ellipse;whiteSpace=wrap;html=1;" vertex="1" parent="1">
          <mxGeometry x="314" y="228" width="50" height="33.75" as="geometry" />
        </mxCell>
        <mxCell id="EWRXOEAjs6uAZaaVGEfP-27" value="" style="ellipse;whiteSpace=wrap;html=1;" vertex="1" parent="1">
          <mxGeometry x="369" y="228" width="50" height="33.75" as="geometry" />
        </mxCell>
        <mxCell id="EWRXOEAjs6uAZaaVGEfP-28" value="" style="ellipse;whiteSpace=wrap;html=1;" vertex="1" parent="1">
          <mxGeometry x="421" y="231" width="50" height="33.75" as="geometry" />
        </mxCell>
        <mxCell id="EWRXOEAjs6uAZaaVGEfP-29" value="" style="endArrow=none;html=1;rounded=0;" edge="1" parent="1">
          <mxGeometry width="50" height="50" relative="1" as="geometry">
            <mxPoint x="437" y="325.75" as="sourcePoint" />
            <mxPoint x="487" y="275.75" as="targetPoint" />
          </mxGeometry>
        </mxCell>
        <mxCell id="EWRXOEAjs6uAZaaVGEfP-32" value="" style="endArrow=none;html=1;rounded=0;entryX=0;entryY=1;entryDx=0;entryDy=0;" edge="1" parent="1" target="EWRXOEAjs6uAZaaVGEfP-12">
          <mxGeometry width="50" height="50" relative="1" as="geometry">
            <mxPoint x="452.69" y="343" as="sourcePoint" />
            <mxPoint x="510.00471570960593" y="306.0522847539868" as="targetPoint" />
          </mxGeometry>
        </mxCell>
        <mxCell id="EWRXOEAjs6uAZaaVGEfP-34" value="" style="endArrow=none;html=1;rounded=0;entryX=0.06;entryY=0.706;entryDx=0;entryDy=0;entryPerimeter=0;" edge="1" parent="1" target="EWRXOEAjs6uAZaaVGEfP-10">
          <mxGeometry width="50" height="50" relative="1" as="geometry">
            <mxPoint x="459" y="363.75" as="sourcePoint" />
            <mxPoint x="520" y="340" as="targetPoint" />
          </mxGeometry>
        </mxCell>
        <mxCell id="EWRXOEAjs6uAZaaVGEfP-35" value="" style="endArrow=none;html=1;rounded=0;exitX=0.989;exitY=0.584;exitDx=0;exitDy=0;exitPerimeter=0;" edge="1" parent="1" source="9z8tWcFH6EBTSIyHQbGG-1">
          <mxGeometry width="50" height="50" relative="1" as="geometry">
            <mxPoint x="460" y="370" as="sourcePoint" />
            <mxPoint x="520" y="370" as="targetPoint" />
          </mxGeometry>
        </mxCell>
        <mxCell id="EWRXOEAjs6uAZaaVGEfP-36" value="" style="endArrow=none;html=1;rounded=0;exitX=0.956;exitY=0.688;exitDx=0;exitDy=0;exitPerimeter=0;" edge="1" parent="1">
          <mxGeometry width="50" height="50" relative="1" as="geometry">
            <mxPoint x="451.51999999999987" y="384.67999999999995" as="sourcePoint" />
            <mxPoint x="514" y="401" as="targetPoint" />
          </mxGeometry>
        </mxCell>
        <mxCell id="EWRXOEAjs6uAZaaVGEfP-37" value="" style="endArrow=none;html=1;rounded=0;exitX=0.956;exitY=0.688;exitDx=0;exitDy=0;exitPerimeter=0;entryX=0;entryY=0;entryDx=0;entryDy=0;" edge="1" parent="1">
          <mxGeometry width="50" height="50" relative="1" as="geometry">
            <mxPoint x="434.7599999999999" y="401.21999999999997" as="sourcePoint" />
            <mxPoint x="488.294773748171" y="431.21120289596547" as="targetPoint" />
          </mxGeometry>
        </mxCell>
        <mxCell id="EWRXOEAjs6uAZaaVGEfP-38" value="" style="endArrow=none;html=1;rounded=0;exitX=0.739;exitY=0.942;exitDx=0;exitDy=0;exitPerimeter=0;entryX=0.274;entryY=0.088;entryDx=0;entryDy=0;entryPerimeter=0;" edge="1" parent="1">
          <mxGeometry width="50" height="50" relative="1" as="geometry">
            <mxPoint x="414.6299999999999" y="410.62" as="sourcePoint" />
            <mxPoint x="453.69999999999993" y="461.97" as="targetPoint" />
          </mxGeometry>
        </mxCell>
      </root>
    </mxGraphModel>
  </diagram>
</mxfile>
